<svg id="图层_1" data-name="图层 1" xmlns="http://www.w3.org/2000/svg" viewBox="0 0 595.28 595.28"><defs><style>.cls-1{fill:#b70031;}</style></defs><title>查询</title><g id="surface1"><polygon class="cls-1" points="114.08 176.14 76.83 152.22 72.44 159.03 109.67 182.96 114.08 176.14"/><polygon class="cls-1" points="95.35 210.09 77.7 201.72 83.36 189.83 100.98 198.21 104.46 190.88 64.49 171.91 60.99 179.23 77.27 186.98 71.62 198.83 55.39 191.08 51.91 198.4 91.88 217.39 95.35 210.09"/><path class="cls-1" d="M46,238.48a21.86,21.86,0,0,0,6,5.6,29.79,29.79,0,0,0,8.3,3.67,29.94,29.94,0,0,0,9.1,1.22,20.57,20.57,0,0,0,7.94-1.73,17.2,17.2,0,0,0,6.31-4.83,21.79,21.79,0,0,0,4.11-8,38.84,38.84,0,0,0,1.1-5.6,12.35,12.35,0,0,0,0-4.05l-7.25-1.58a12.79,12.79,0,0,1,.63,3.7,16.8,16.8,0,0,1-.71,5,13.45,13.45,0,0,1-2.19,4.38,9.77,9.77,0,0,1-3.81,3,13.8,13.8,0,0,1-5.51,1.3,24,24,0,0,1-7.36-1,21.91,21.91,0,0,1-6.76-2.95,14.78,14.78,0,0,1-4.09-4A11.09,11.09,0,0,1,50.1,228a13.27,13.27,0,0,1,.44-4.86,12.49,12.49,0,0,1,2.26-4.67c.91-1.13,1.67-2,2.34-2.72l-6.9-2.4c-.56.71-1.26,1.86-2.2,3.34a27.66,27.66,0,0,0-2.23,5.6,20.19,20.19,0,0,0-.69,8.88A17.53,17.53,0,0,0,46,238.48Z" transform="translate(-0.36 -0.92)"/><path class="cls-1" d="M149.77,135.87l-4.32-10.23L157.23,116l9.15,6.28,6.49-5.29L133.82,91.72l-6.9,5.6L143.45,141Zm-15.31-36,.11-.12,17.37,12.47-9.1,7.51Z" transform="translate(-0.36 -0.92)"/><polygon class="cls-1" points="123.77 162.57 97.48 140.22 97.59 140.14 133.35 151.31 139.61 143.92 105.88 115.21 101.13 120.82 127.66 143.33 127.54 143.44 91.51 132.16 85.26 139.48 119 168.17 123.77 162.57"/><path class="cls-1" d="M515.87,268.91l18.89-2.18.23,1.82a7.13,7.13,0,0,1-.54,3.87,6.43,6.43,0,0,1-3.36,2.77l-13.81,6,1,8.57,16.09-7.67a10.56,10.56,0,0,0,2.35-1.41,5.25,5.25,0,0,0,1.38-1.36,3.87,3.87,0,0,0,.59-1.39,9,9,0,0,0,.21-1.3l.21,0a9.8,9.8,0,0,0,4,5.75,10,10,0,0,0,7.3,1.58,12.27,12.27,0,0,0,5.08-1.55,9.56,9.56,0,0,0,3.34-3.06,13.28,13.28,0,0,0,1.62-4.42,20.57,20.57,0,0,0,0-5.39L559,255.79l-44,5Zm37.79-4.33.39,3.26a9.77,9.77,0,0,1-.64,5.43c-.69,1.36-2.31,2.15-4.82,2.48a6.3,6.3,0,0,1-5.26-1.44,7.64,7.64,0,0,1-2.23-5l-.41-3.3Z" transform="translate(-0.36 -0.92)"/><polygon class="cls-1" points="487.79 187.89 525.63 164.91 521.4 157.98 483.58 180.96 487.79 187.89"/><polygon class="cls-1" points="463.49 153.79 490.34 132.13 490.45 132.24 472.73 165.28 478.82 172.87 513.33 145.06 508.71 139.32 481.63 161.16 481.58 161.06 499.39 127.78 493.3 120.28 458.87 148.03 463.49 153.79"/><path class="cls-1" d="M437.18,128.64a19.43,19.43,0,0,0,3.9,4.55,18.9,18.9,0,0,0,5,3.11,12.24,12.24,0,0,0,5.52.94,13.39,13.39,0,0,0,5.69-1.67,20,20,0,0,0,5.76-4.87L481.76,109l-6.09-5.3-18.78,21.73c-2.36,2.78-4.5,4.33-6.28,4.64a6.23,6.23,0,0,1-5.34-1.78c-1.79-1.56-2.64-3.23-2.55-5s1.25-4.13,3.67-6.9l18.73-21.7L459,89.32,440.23,111a21.25,21.25,0,0,0-4,6.42,14,14,0,0,0-.87,5.9A12.59,12.59,0,0,0,437.18,128.64Z" transform="translate(-0.36 -0.92)"/><polygon class="cls-1" points="197.73 101.8 183.35 70.46 183.49 70.41 211.19 95.67 220.02 91.66 201.56 51.4 194.86 54.45 209.35 86.05 209.27 86.11 181.41 60.67 172.61 64.67 191.05 104.89 197.73 101.8"/><polygon class="cls-1" points="513.16 252.64 519.41 250.97 515.22 235.72 527.81 232.26 531.64 246.09 537.82 244.4 534.06 230.57 545.44 227.46 549.45 242.08 555.68 240.38 549.56 217.93 506.82 229.58 513.16 252.64"/><polygon class="cls-1" points="39.28 289.5 77.04 291.39 77.44 283.27 39.68 281.38 40.17 271.59 33.72 271.22 32.32 299.05 38.75 299.36 39.28 289.5"/><polygon class="cls-1" points="499.92 212.07 545.87 206.22 542.42 198.58 507.54 204.21 507.51 204.12 534.91 181.94 531.35 173.96 496.44 204.29 499.92 212.07"/><path class="cls-1" d="M277.1,80.09l-1.3-19,1.83-.11a6.32,6.32,0,0,1,3.83.77,6,6,0,0,1,2.62,3.45l5.35,14.06,8.63-.6-6.94-16.43a13,13,0,0,0-1.26-2.41,6.12,6.12,0,0,0-1.35-1.44,5.1,5.1,0,0,0-1.29-.71,9.75,9.75,0,0,0-1.33-.25v-.2a9.79,9.79,0,0,0,5.93-3.68,10.9,10.9,0,0,0,1.92-7.24,13.1,13.1,0,0,0-1.32-5.15,9.16,9.16,0,0,0-3-3.42,10.57,10.57,0,0,0-4.32-1.84,18.14,18.14,0,0,0-5.38-.31L266,36.5l3,44.19Zm.67-38.15a9.12,9.12,0,0,1,5.42.9c1.32.73,2.11,2.37,2.25,4.95A6.22,6.22,0,0,1,283.8,53a8,8,0,0,1-5.09,2l-3.31.23-.92-13.07Z" transform="translate(-0.36 -0.92)"/><path class="cls-1" d="M226.08,78a20.73,20.73,0,0,0,5.49,6A15.7,15.7,0,0,0,238,86.55a17.14,17.14,0,0,0,6.77-.29,16.64,16.64,0,0,0,6.08-2.89,14.6,14.6,0,0,0,4.49-5.31,19,19,0,0,0,2.11-7.78,33.93,33.93,0,0,0-1-10.36,33.54,33.54,0,0,0-3.88-9.61,21.28,21.28,0,0,0-5.53-5.92,15.32,15.32,0,0,0-6.43-2.65,17.92,17.92,0,0,0-6.77.31,17.22,17.22,0,0,0-6.1,2.89,14.51,14.51,0,0,0-4.51,5.34,20.75,20.75,0,0,0-2.1,7.8,32.11,32.11,0,0,0,1.06,10.3A32.2,32.2,0,0,0,226.08,78Zm3.76-24.75a8.65,8.65,0,0,1,2.22-3.42,7.49,7.49,0,0,1,3.34-1.76,8,8,0,0,1,3.65,0,7.79,7.79,0,0,1,3.56,2.07,14.21,14.21,0,0,1,3.12,4.49,32.09,32.09,0,0,1,2.57,7.3,33.55,33.55,0,0,1,1.16,7.7,16,16,0,0,1-.7,5.4,7.56,7.56,0,0,1-2.16,3.48,7.7,7.7,0,0,1-3.34,1.7,6.76,6.76,0,0,1-3.68,0,7.82,7.82,0,0,1-3.56-2,17.57,17.57,0,0,1-3.14-4.53,34.56,34.56,0,0,1-2.54-7.32,33.64,33.64,0,0,1-1.16-7.67A17.61,17.61,0,0,1,229.84,53.25Z" transform="translate(-0.36 -0.92)"/><polygon class="cls-1" points="414.39 103.98 401.48 97.16 419.13 63.74 411.95 59.94 391.27 99.09 411.41 109.7 414.39 103.98"/><polygon class="cls-1" points="316.22 41.75 316.36 41.75 322.19 79.69 327.92 80.44 343.56 45.23 343.72 45.23 339.08 81.87 346.38 82.77 351.91 38.87 340.32 37.39 326.89 68.97 326.74 68.97 321.85 35.05 309.83 33.52 304.26 77.42 311.56 78.36 316.22 41.75"/><path class="cls-1" d="M359.4,87.73l6.46-9,14.39,5-.56,11.09,7.92,2.68,1-46.44-8.44-2.92-28.46,37Zm22.67-31.91.12.06-1.54,21.36-11.12-3.85Z" transform="translate(-0.36 -0.92)"/><polygon class="cls-1" points="514.55 335.15 558.39 341.63 559.53 333.62 515.76 327.14 514.55 335.15"/><path class="cls-1" d="M448.24,512c-1.93-2.44-5.88-1.47-10.05,1.22-2.46,1.55-5.49,2-7.3,2.45-5.6,1.48-10.16-.39-11.57,0s-.62,3.94.56,5.58c3.31,4.76,12.85,2.83,18.49.94,2.18-.71,4.52-3,6.32-4.22,2-1.35,4.05-1.78,3.88-3.17S449.07,513.08,448.24,512Z" transform="translate(-0.36 -0.92)"/><path class="cls-1" d="M475.84,463.27c3-3.4,5.07-7.15,6.85-9.33.94-1.16,2.34-2.07,3.22-3.31,1-1.53,2.07.4,3,.25,2.39-.45,4.57-2.26,4.49-4.1.08-1.16-.81-3-3.08-4.1-4.22-2.06-7.45,7.29-9.95,6.54-.55-.15-.61-4.05-.53-3.29a15.49,15.49,0,0,0-2.09-7.35c-1.18-1.87-2.15-1.7-3.28-2.44-.92-.56-1.58-1.38-2.81-1.56a4,4,0,0,0-4.63,4.17c.09,2.26,1.9,6.17.63,7.63s-2.82,1.5-3.37.43c-.77-1.53-.91-4.7-1.92-5.2-.55-.35-1.85.5-2.59,1.89s.74,4.67-1,5.35c-.78.28-1.78-1.37-2.47-1.19-2,.42.29,5.65-.93,7.12-2.09,2.58-1.81,4.25-.56,6.71.88,1.78,3,4.33,4.08,6.42,1.23,2.41,3.67,3.88,3.45,5s-.82.51-1.59,1.47c-1.11,1.44,2.28,9.39,6.77,12,.9.51,3.22.71,3.93-.59,1.3-2.35-3.74-3.79-4.62-6.34-.68-1.72,3.21-6.42,5.23-10A27.93,27.93,0,0,1,475.84,463.27Zm-9.7,6.37c-.8.31-1.73-1.5-3.07-2.8-1.95-1.87-4.51-4.24-4.29-4.67.34-.68,0-3.6.78-3.45,1.29.25,2.54,3.62,3.34,4.7,1.29,2.26,2,.85,2.59,3.48C465.83,468.39,467.16,469.18,466.14,469.64Zm1.45-8.71c-.9.24-1.21.7-2-.37-1.76-2.32-2-5.47-1.17-6.56,1.84-2.49,1.76,1.67,1.87,2.2C466.63,457.36,468.49,460.72,467.59,460.93Zm2.93-17.09c.65-2.12-.06-2.66.54-3.59.81-1.22,2.53-.88,3.85.22s2,2.89,1.18,3.88c-.94,1.19-2.37-.23-3,.36-.79.77-.48,2.63.76,2.55s1.84,1.08,2.1,2.32c.08.54-.4,1.64-.17,2.12.22.71,1.61.88,1.95,1.53s-.8,2.52-1.92,2.44c-1.79-.21-1.45-3.6-2.17-4.37C469.77,447.49,470.24,444.8,470.52,443.84Zm.65,15.39s-.5-.54-.53-.54c-1.3-.45-1.05-4-.93-4.13C471.55,453.06,474.28,459.71,471.17,459.23Z" transform="translate(-0.36 -0.92)"/><path class="cls-1" d="M426.08,503.73c1.31-2.47,1.39-5.3-1.3-5.64-1-.11-1.37-.28-3,.74-2.79,1.75-1.6,3-3.48,4.21-.78.51-1.78-3.08-.37-4.35,2.91-2.72,5.76-6.71,4.58-10.05-.95-2.71-2.57-4.92-6.05-1.49a18.89,18.89,0,0,0-5.34,8.43c-1.59,5.23-2.4,11-4.74,14.56-1.51,2.27-1.86,1-3.66,2.72-5.18,4.81-7.83,9.16-5.18,11.79,1.88,1.85,4.4,1.16,5.73.71,1.7-.56,2.64-2,2.92-1.08s-.92,5-1.48,8.21a18.49,18.49,0,0,1-3.08,6.65c-2.86,3.93-3.68,5.26-2.73,6.45,1.14,1.38,3.07,1.16,4.68,0,1.78-1.33,7.76-11.17,9.35-21.87.22-1.92,1.46-4.13,1.95-5.71.66-2.12.15-3.48,1.23-5C419.43,508.62,424.41,506.92,426.08,503.73Z" transform="translate(-0.36 -0.92)"/><path class="cls-1" d="M369.64,541.37c-1.91.23-1.91,2.66-1.91,4.59l0,1.46c-.29,2.89-4.91,6.31-9.11,8.07l-1.18.48c-2,.93-3.6,1.67-6.09.68-1.13-.37-2.16-2.41-2.39-4.56-.14-1.6.25-2.91,1.15-3.45.4-.25.51-.14.75.12.49.51,1,.78,3.07-.79.21-.15.24-.63.29-1.62a8.93,8.93,0,0,1,.33-2.26l.71-1.7.49-1.16a5.12,5.12,0,0,0-1.85-4.64,6,6,0,0,0-5.89-.67c-3.11,1.21-5.92,3.81-8.43,6.08s-4.72,4.3-6.67,4.49a2.62,2.62,0,0,1-1.75-.48c-.49-.22-.92-.53-1.35-.31-.66.26-1.23,1.36-1.91,3.65a9.65,9.65,0,0,0-.14,2.26c0,1.56.06,3.54-.63,4.13a.83.83,0,0,1-.74.17.79.79,0,0,1-.67-.45c-.62-1.13.34-3.85.37-3.88s.2-2.26.2-2.26a7.31,7.31,0,0,1,.1-1.9c.89-3.16,3.61-4.09,6.52-5a11.23,11.23,0,0,0,3.88-3.15c.59-1.13-.6-2.12-1.55-3l-.14-.08c-1.62-1.39-3.07-1.62-4.46-.7-1.15.72-2.5,2.45-4.06,4.49a53.82,53.82,0,0,1-3.77,4.46l-.43.43c-2.7,2.69-5.74,6-5.43,7.47a1,1,0,0,0,.54.59c1.28.48,2.28-.93,3.22-2.15.7-1,1.39-1.83,1.9-1.55.17.11.33.22.35.43s-.08.78-.49,1.46l-.2.29a6.34,6.34,0,0,0-1,3.59c-.11,2.94.58,3.53,1.61,4.53l1.12,1.07a4,4,0,0,1,.72,2.18l.16.71a1.57,1.57,0,0,0,1.62.48c.32-.06.5-.11.72.19.57.79.51,2.75.12,3,0,0-.07.09-.23-.14-.44-.51-1.44-.26-1.78-.17a2.31,2.31,0,0,0-1.56,2l-.2.58c-1.05,2.9.54,4.18,2.21,5a2.93,2.93,0,0,0,3.53-.08c1.42-.88,1.42-3.42,1.42-6v-.88a27.31,27.31,0,0,1,.57-5.79,6,6,0,0,0,0-3.48l-.11-1.31c.11-1.63,1-2.35,2.05-3.25a10.15,10.15,0,0,0,1.78-1.72l1.38-1.73a22.07,22.07,0,0,1,5.5-5.49,15.38,15.38,0,0,0,2.38-2.18,11.94,11.94,0,0,1,3.37-2.68l.23-.12c1-.45,3-1.33,3.68-.7a3.85,3.85,0,0,1,.8,2.71.71.71,0,0,1-.72.53c-.56,0-.65-.3-.8-.84s-.18-.76-.53-.94a5.51,5.51,0,0,0-2.52.23c-.72.14-1.12,1-1.72,2.13a14.29,14.29,0,0,1-1.44,2.2c-2.21,2.49-2.29,6.59-1.33,9.39a8.56,8.56,0,0,0,4.17,4.92l.69.43c2.7,2.35,6.34,4,14.32.42,5.23-2.37,9.11-5.91,10.67-9.7.72-1.76.17-6.06-1.37-8.06A2.28,2.28,0,0,0,369.64,541.37Z" transform="translate(-0.36 -0.92)"/><path class="cls-1" d="M346.66,526.21c-.74.65-1.54,1.33-1.54,2.34a3.47,3.47,0,0,0,1.25,2.78,2.1,2.1,0,0,0,2,.14c1.1-.51,1.47-1.72,1.86-3.05a13.46,13.46,0,0,1,1-2.47,3.86,3.86,0,0,1,2.15-1.67,3.58,3.58,0,0,0,2-1.35,2.58,2.58,0,0,0,.5-2.32,3.69,3.69,0,0,0-2.42-2.15,2.25,2.25,0,0,0-2.88,1.25c-.11.25-.29.5-.4.53l-.17-.08c-1-.85-.6-2-.2-3.14a9.6,9.6,0,0,0,.48-1.76,1.69,1.69,0,0,0-.62-1.63c-.66-.46-1.78-.32-3.37.48a5.25,5.25,0,0,0-1.69,1.72,7.73,7.73,0,0,1-1.78,1.92,18.88,18.88,0,0,0-4.29,3.71,8.76,8.76,0,0,1-1.91,1.75,11.69,11.69,0,0,1-2.13.48c-1.52.29-3.27.59-3.81,1.39l-.84,1.53c-.38.74-.72,1.56-1.11,1.67l-.22-.06c-.69-.37-.31-1.53.11-2.69l.13-.43a9.94,9.94,0,0,1,2.21-3.5,7,7,0,0,0,1.16-1.55,2.22,2.22,0,0,0-.32-2.55,2.54,2.54,0,0,0-2.76-.65c-1.75.65-4,4.1-5,6.17a22.73,22.73,0,0,0-1.36,3.73,15.4,15.4,0,0,1-1.4,3.76c-.72,1.25,0,2.89,1,3.93s2.52,1.81,3.93,1.14c.33-.18.41-.54.57-1a2.55,2.55,0,0,1,1.89-2c.59-.17,1.14.19,1.75.71a2.63,2.63,0,0,0,2.66.7c1.22-.43,2-2.13,2.63-3.59l.49-1.08c.83-1.78,5.26-8.15,7.12-9.05.9-.45,1.48-.57,1.75-.43.42.21.53.77.74,1.53l.14.62c.18.66.74.93,1.18,1.19s.78.37.8.77C348.07,524.94,347.37,525.53,346.66,526.21Z" transform="translate(-0.36 -0.92)"/><path class="cls-1" d="M493.75,460.45c-1,.56-3.85,6-5.91,8.31-.85.88-1.51.71-2,.23-1.72-1.56,3.63-6.45,1.81-8.09-2.68-2.41-5.44-1.53-7.66,1.49a79.35,79.35,0,0,1-5.18,7c-2.14,2.64-3.32,7.72-.91,8.69s4.61-1.3,5.15-4.05c.21-.9-.14-1-.29-1.84s.55-1.38.55-1.92c0-1.69-.17-2.63,1.15-2.49.49,0,1.55,2,1.8,2.55a5.94,5.94,0,0,1,.42,4c-1.7,4.16-4.17,8.21-2.45,10.44.41.52,2.93.76,3.89.31s.85-1.58,1.57-3.79c.3-.82,2.05-1.84,2.3-2.55.58-1.32.58-3.58,1.33-3.45,1.43.34,3.42,3.2,3.79,6.37.21,1.86-.05,4-1,4.72-.37.29-2.07,2.52-.76,4.11a3.3,3.3,0,0,0,4.18,1c4-2.06,3.06-6.42,2.83-10.91a12.75,12.75,0,0,0-1.73-5.83c-1.12-1.64-.61-1.84-1.22-2.44-1.22-1.1-2.37-1-2.34-1.55.11-1.9,2.49-3.34,2.9-3.84.61-.72,2.36-2.21,2.73-3.71C499.31,460.27,494.88,459.85,493.75,460.45Z" transform="translate(-0.36 -0.92)"/><path class="cls-1" d="M499.47,298.56a201.47,201.47,0,1,0-402.94,0C96.69,409.84,186.71,499.81,298,500A201.71,201.71,0,0,0,499.47,298.56ZM298,493.14A194.88,194.88,0,0,1,103.37,298.56C103.6,191.09,190.54,104.11,298,103.94a194.6,194.6,0,1,1,0,389.2Z" transform="translate(-0.36 -0.92)"/><path class="cls-1" d="M298,.92C133.62,1.2.65,134.18.36,298.56.65,463,133.62,595.91,298,596.19,462.37,595.91,595.32,463,595.64,298.56,595.32,134.18,462.37,1.2,298,.92Zm0,583.84c-158.08-.3-285.91-128.13-286.2-286.2C12.09,140.48,139.92,12.63,298,12.35c158.08.28,285.91,128.13,286.17,286.21C583.91,456.63,456.08,584.46,298,584.76Z" transform="translate(-0.36 -0.92)"/><path class="cls-1" d="M562,305a12.59,12.59,0,0,0-2.15-4.5,10.77,10.77,0,0,0-3.64-3.2A11.34,11.34,0,0,0,551.1,296a11.91,11.91,0,0,0-7.14,1.69,16,16,0,0,0-4.74,5.12l-2.45,4.05c-.56.93-1.11,1.75-1.61,2.46a9.32,9.32,0,0,1-1.55,1.75,4.88,4.88,0,0,1-1.67,1,5.86,5.86,0,0,1-2.12.28,6.12,6.12,0,0,1-2.79-.68,6,6,0,0,1-2-1.55,7.26,7.26,0,0,1-1-2.21,7.62,7.62,0,0,1-.33-2.51,16,16,0,0,1,1.23-5.72,24.47,24.47,0,0,1,1.87-3.59l-7.18-.69c-1.41,2.13-2.21,5.47-2.36,10a19.64,19.64,0,0,0,.6,5.85,13.14,13.14,0,0,0,2.31,4.83,11.39,11.39,0,0,0,4,3.28,14.14,14.14,0,0,0,5.78,1.36,14,14,0,0,0,4.14-.37,8.75,8.75,0,0,0,3.13-1.27,11.54,11.54,0,0,0,2.63-2.32,22.47,22.47,0,0,0,2.34-3.28l2.83-4.63a12.41,12.41,0,0,1,1.12-1.77,6.49,6.49,0,0,1,1.23-1.41,5.5,5.5,0,0,1,1.61-1,6.16,6.16,0,0,1,2.14-.26,4.92,4.92,0,0,1,3.7,1.67,6.53,6.53,0,0,1,1.29,4.67,17.09,17.09,0,0,1-.82,4.81c-.5,1.3-1,2.46-1.38,3.42l6.79.63c.22-.63.56-1.73,1-3.29a21.23,21.23,0,0,0,.87-5.88A18.13,18.13,0,0,0,562,305Z" transform="translate(-0.36 -0.92)"/><polygon class="cls-1" points="547.93 360.44 511.37 350.88 509.3 358.71 545.87 368.33 543.34 377.8 549.65 379.47 556.66 352.54 550.45 350.91 547.93 360.44"/><path class="cls-1" d="M46.57,334.93a11.69,11.69,0,0,0,6.84-2.6,16.34,16.34,0,0,0,4.09-5.63l1.93-4.3c.45-1,.89-1.95,1.26-2.68a14,14,0,0,1,1.3-1.93,5.44,5.44,0,0,1,1.56-1.25,7.19,7.19,0,0,1,2-.51,6.72,6.72,0,0,1,2.91.29,5.11,5.11,0,0,1,2.13,1.3,5.17,5.17,0,0,1,1.32,2,8.73,8.73,0,0,1,.67,2.52,14.68,14.68,0,0,1-.53,5.77,18.52,18.52,0,0,1-1.38,3.79l7.24-.18c1.1-2.31,1.46-5.71,1-10.23a19.84,19.84,0,0,0-1.31-5.75,13.84,13.84,0,0,0-2.91-4.46,10.9,10.9,0,0,0-4.41-2.78,13.71,13.71,0,0,0-5.91-.62,15.35,15.35,0,0,0-4.09.88,9,9,0,0,0-2.89,1.67,10.93,10.93,0,0,0-2.34,2.6,21.8,21.8,0,0,0-1.89,3.56l-2.22,5c-.32.65-.57,1.28-.9,1.84A9.15,9.15,0,0,1,49,324.86a4.93,4.93,0,0,1-3.59,1.76,4.88,4.88,0,0,1-3.87-1.22A6.51,6.51,0,0,1,39.75,321a15.55,15.55,0,0,1,.24-4.9c.29-1.38.6-2.57.88-3.56l-6.76.23c-.17.65-.37,1.78-.65,3.39a22.82,22.82,0,0,0-.11,5.94,18,18,0,0,0,1.22,5.24,13.5,13.5,0,0,0,2.65,4.24,11.36,11.36,0,0,0,4.06,2.69A11,11,0,0,0,46.57,334.93Z" transform="translate(-0.36 -0.92)"/><polygon class="cls-1" points="501.28 382.05 498.05 389.49 514.2 396.42 533.51 418.99 536.99 410.92 523.94 396.5 543.6 395.57 547.11 387.54 517.6 389.07 501.28 382.05"/><path class="cls-1" d="M139,447a8.07,8.07,0,0,0-7.28-2c-1.94.45-.19,2.45.17,2.88s.92.28,1.28.6c1.42,1.09,2.37,3,3.38,3.16C140.38,452.22,141.41,449.44,139,447Z" transform="translate(-0.36 -0.92)"/><path class="cls-1" d="M136.18,453.15c-2.76-1.56-4.8-2.72-5.33-4.38,0-.15-.51-1.91-1.07-2.22s-.89.71-1.88-.14-4.4-4.61-7.43-5.86c-1.29-.48-2.69-3.16-4.27-3.39s-5.54.91-4.14,4.22c.61,1.44,4.79,1.21,7.81,3.81,1.51,1.22,3.2.54,3.63,2.7.19.84-.29.73-.72.76-.26,0-5.79-2.77-10.82-4-3.54-.82-6.64-1.53-8,1.64-.29.74.35,3.37-1.69,2.63s-5.11-1.19-6.36-.26a20,20,0,0,0-2.33,2.27c-1.61,2,1,3.88.24,4.52-.32.32-2.28-1.13-4.09-1.56-1.24-.27-2.62,1-3.16,1.62-.79,1,0,1.27,1.81,3.05,2.93,2.92,4.27,3.43,8.83,5.78a9.07,9.07,0,0,1,3.3,2.66c.66,1.13-.9,2-2.24,1.27-2.76-1.5-14.72-7.72-13.34-.91.31,1.62,2.69,3.85,3.53,4.28,1,.5,4,1,4.11,2.46.17,1.7-4.51,3-3.76,5.85.48,1.84,1.49,3.23,2.7,2.63,2-.88,5.53-4.95,6.55-4.84,3.05.35,7.33,7.53,10.47,5.89,3.77-1.87,3.36-4.61,2.22-5.41-2-1.44-5.38-3.22-6.9-4.83-.59-.68.63-1.53,1.6-2.07,2.42-1.3,5.84,4.33,9.26,7.38,2.57,2.27,2,2.5,3.48,4.14,2.16,2.29,5.78,1.72,7-2,.48-1.47-6.39-6.93-9-8.79-3.32-2.36-5.23-3-5.29-4.73.06-1.93,2.34-.49,2.4-.42,2.89,2.82,16.8,4.66,16.43-4.11-.15-3,2.38-3.19-.4-5.49-.24-.19-3.43-2-3.57-2.88a1.63,1.63,0,0,1,2.67-1.19c2,1.41,4.87,4.3,5.27,4.5C137.81,459.87,141,455.86,136.18,453.15ZM109.57,449c.52-1.83,9,.14,9.79,1.62.48.9-.53,1.55-2.63,1.24C113.57,451.45,109.07,450.82,109.57,449Zm-12.07,4.7c-.25-2.4,4.48-1.7,5.23-1C104.07,454.11,97.78,456.23,97.5,453.71Zm13.5,4.86c-2.39,1.65-3.32,3.91-4.18,3.77-1.29-.2-2.3-1.3-3.45-1.84-2.05-.9-3.94-1.47-4.15-2-.39-1.07,1-.17,2-.91,3.74-2.57,5.38-4.19,6.93-3.79s2.31,1.05,3.26,1.22c1.89.42,3.13,0,3,.42A13.1,13.1,0,0,1,111,458.57Zm14.06-.11c-.32.45-2.34.91-2.78,2.15s-.79,2.44.29,3.23c.61.51-.26,1-1.51,1.33-.93.22-6.82.56-6.94-1-.12-1.12,2.59-4.09,5.45-5,.82-.6,1.45-2.2,2.26-2.49C123.18,456.12,125.33,458.12,125.06,458.46Z" transform="translate(-0.36 -0.92)"/><path class="cls-1" d="M127.87,435.47a8.08,8.08,0,0,0-2.43-1.5c-1-.29-1.08.31-1.94.34a1.85,1.85,0,0,0-1.87,1.24c-.84,1.81,1,4.13,4.23,5.74C129.72,443.25,130.91,437.68,127.87,435.47Z" transform="translate(-0.36 -0.92)"/><path class="cls-1" d="M298,115.4C52.59,127.08,57.21,472.21,298,481.71,543.42,470,538.78,124.87,298,115.4ZM417,380l-237.35.38L180,211H417Zm-32.59,14.33-73.21-70.4A71.33,71.33,0,0,1,275,340.1,77.22,77.22,0,0,1,227.6,332,69.14,69.14,0,0,1,194.67,294l-.15-.46c-12.38-45.21,6.65-70,19.09-80.81,21.44-18.57,53.91-23.17,80.81-11.46,25.84,11.25,41.29,35.42,42.4,66.3v.27l0,.27c-1,18.57-6.93,34.82-17.2,47.29l73.12,70.31ZM206,290.11c11.47,31.31,42.83,41.72,67.18,38.12,23.5-3.47,49.37-21.19,51.61-60.53-1.38-35.51-22.63-50-35.19-55.46-22.4-9.75-50.43-5.83-68.16,9.53S198.24,261.41,206,290.11Z" transform="translate(-0.36 -0.92)"/><polygon class="cls-1" points="90.04 374.69 84.11 377.27 90.44 391.75 78.44 396.95 72.72 383.8 66.77 386.4 72.5 399.56 61.68 404.23 55.64 390.33 49.71 392.91 58.98 414.24 99.59 396.59 90.04 374.69"/><path class="cls-1" d="M86.78,364.57l-11.1-.45L71.9,349.36l9.59-5.63-2.1-8.12L40,360.3,42.23,369l46.56,3.43Zm-39.1-1.41,0-.11,18.62-10.5,3,11.43Z" transform="translate(-0.36 -0.92)"/><path class="cls-1" d="M275.34,532.8c-2.77-1.47-7.65,1-8.8-.79-.43-.73.85-2,1.12-2.94a2.74,2.74,0,0,0-1.64-3.42.7.7,0,0,1,.3-1.37,15,15,0,0,1,3.42.46c2.58.43,4.1.4,5.91-1.81a2.58,2.58,0,0,0-.56-3.14c-1.33-1.16-5.65-1.56-10.24-1.81-4.89-.26-10.1-.79-11.23.91-.57.84-1.7,1.75-2.35,2.83-.92,1.55-1.47,3-2.45,3.56-3,1.78-4.2,5.89-4.62,4.47-.34-1-1.76-1-2.59-1.31-.44-.13-.27-1.24.17-1.61s.55,0,1.23-.19c1.84-.62,4.14-2.38,4.61-3.69,1.14-3.3,2.7-5.76,1.32-7.88-1.18-1.76-3.39-2.66-5.68-3a11.23,11.23,0,0,0-4.5.31c-2.24.79-3.19,3.39-4.75,6.59-.64,1.32-2,2.88-2.69,5-.93,2.6-2.14,6.27-2.71,8.15-1.24,4.21-1.64,7.2-.84,10.35.37,1.61-.32,3.82,2,4.1,1.81.25,1.4-6.73,2.22-9.85.4-1.3.73-2.48,1.78-3,.34-.17.65-.76,1.23-.41s-.58,2.11.41,2.23c1.61.11,2.63-1.85,3.85-1,1,.71-.6,2.33-2,3.31-2.72,2-4.17,6-.75,7.16,1.49.54,3.38-1.38,4.29-3.42.73-1.56.62-2.6,1.35-3.82.48-.93,1.4-1.08,2.15-2.23a28.73,28.73,0,0,1,2.38-3.71c1.28-1.5,3-3,4.13-4.16a18.27,18.27,0,0,1,3.79-3.4c1.35-.67,3.34-1.07,4.43-.19.77.68-2.79,2.41-5,4.19a17.06,17.06,0,0,0-6,10.15c-.4,1.75-1.7,6.59-.56,7.75a3,3,0,0,0,2.6,1.16c2.79-.08,2.16-5.34,3.94-7.41.36-.45.73-1.27,1.5-.82s-2.17,10.72-4,16.69a68.45,68.45,0,0,0-2.15,10.78c-.19,1.38-.36,2.68,1.62,3.22,2.79.73,4.33-5.26,5.29-9,.76-3.08,2.15-7.65,3.62-9.19s5.23-2.51,7.44-2.88,4.33-2.85,5.65-3.8c1.83-1.23,3.69-5.9,4.17-7.54C277.77,535,277.13,533.82,275.34,532.8Zm-35.55-5.09a5.92,5.92,0,0,0-4.39,4,.58.58,0,0,1-1.08-.31,8.06,8.06,0,0,1,1.36-5.35c1.64-2.27,2.38-4.13,3.65-5.54,1.65-1.85,3.68-2.47,4.09-1.9.78,1-1.32,2-1.47,3a6.19,6.19,0,0,1-1.73,3.87C239.61,526.38,241.34,527.4,239.79,527.71Zm18.52,3.65c-1.27,1.7-2.81,2.37-3.56,1.44-.48-.65,2.61-3.14,4-4.75,1.83-2,2.14-1.62,2.66-1.13S260,529,258.31,531.36Zm9.27,11.79c-1.73.94-2.73,1.34-3.78,1.14-.53-.14-1.58-1.53-1.23-2.15.89-1.53.47-2.24.89-3.09.75-1.38,2.83-.73,4.12-.62,1.78.14,3-.48,3,.85A6.79,6.79,0,0,1,267.58,543.15Z" transform="translate(-0.36 -0.92)"/><path class="cls-1" d="M189.82,492.35c-.61-1.19,1.67-3.9-1.65-4-.4-.05-2.27-.36-2.89,0s-1.59,2.46-1.84,2.38a54.67,54.67,0,0,0-7.69-2.94c-3.45-.94-5.33-3.45-8.14-2.66a10.5,10.5,0,0,0-3.13,1.1c-1.81,1.19-1.44,3.91.55,5.18.88.56,6.9-.26,9.2.34,2.72.65,5.48,1.47,5.72,2.6.1.59-.61,1.5-1.72,2.29-4.07,2.75-6.08,1.33-8.29,1.3-.42,0-.31-.93.51-1.33,1.05-.53,3.05-.71,3.12-1.1s-3-1.61-6-1.87a8.45,8.45,0,0,0-3,.29c-2.89.51-7.11,5-8.89,10-1.41,4.08-3.36,7.19-1.27,9.05,2.47,2.18,4-.56,5.83-5.15,1.1-2.6,3.57-4,4.92-4.69.55-.32,2.47-2.92,5.93-.57.12.11-.17,1-1.21.94-1.33-.06-3.08.71-3.42,1.41-.42,1,0,2.2-.17,3.49s-2.72,1-1,3.61c.12.2-1.55.82-2.15.4-.28-.2-.09-.77-.42-.85-1-.42-2.54,1.75-2.8,2-1.41,1.22-3.54,1.67-5.77,2.19a100.8,100.8,0,0,0-11.8,3.78c-3.45,1.4-2.94,3.91.72,5.72,1.57.8,6.24-1.08,8.5-1.9,1.61-.56,5.06-1.63,6.51-1.24s-5.27,8.14-5.17,9.34c.19,2.06,3.13,4.5,4.63,2,.62-1.16,1.23-2.72,2.17-4.5.68-1.39,1.93-2.77,2.65-4,1.09-1.73,2.08-3.42,2.54-3.22,1.13.39.91,2.26,1.81,4.81,2.18,6,8.48,12.72,13.91,15.52,3.29,1.67,5.87.26,4.59-4.1-.3-.91-.5-1.64-.7-2.12-.63-1.61-.66.14-3.81-2.27-.82-.67-4.35-4.57-6.32-6.27a17.86,17.86,0,0,1-3.18-5.06c-.52-1.33-2.13-2.07.68-3.32,1.7-.73.56-2.71,2-3,1.22-.19,3.49,0,5.06-.37,1.84-.37,4.3-1.69,7.22-2.68,2.77-.91,6.73-6.14,5.3-8.31-1-1.51-3.13-2.22-5.73-3.88-1.32-.88-4.25.7-2.75-1.3,1-1.39,1.17-2.07,2.73-2.12,2.39,0,9.37,4,10.38-.06C197,494,191.13,494.87,189.82,492.35Zm-6,14.62c-.33,2.5-4,4.14-6.5,4.67a28.38,28.38,0,0,0-2.68,1.14c-1.54.33-1.33-.45.16-1.88.82-.82,2.66-2.62,1.54-3.93s.9-4.52,1.91-3.53C180.1,505.22,183.89,506.38,183.77,507Z" transform="translate(-0.36 -0.92)"/></g></svg>