<?xml version="1.0" encoding="utf-8"?>
<!-- Generator: Adobe Illustrator 24.0.1, SVG Export Plug-In . SVG Version: 6.00 Build 0)  -->
<svg version="1.1" id="图层_4" xmlns="http://www.w3.org/2000/svg" xmlns:xlink="http://www.w3.org/1999/xlink" x="0px" y="0px"
	 viewBox="0 0 165.6 165.6" style="enable-background:new 0 0 165.6 165.6;" xml:space="preserve">
<style type="text/css">
	.st0{fill:#231815;}
	.st1{enable-background:new    ;}
	.st2{fill:#FFFFFF;}
</style>
<title>aboutUs</title>
<circle class="st0" cx="82.8" cy="82.8" r="82.8"/>
<g class="st1">
	<path class="st2" d="M94.2,74.2c-0.5,2.8-2.5,10.5-6,23c-1.5,5.3-2.6,9.6-3.3,13c-0.7,3.4-1.2,6.8-1.5,10.3l1.6,1.9
		c0.7,0.9,1.4,1.4,2.1,1.5c1.4-0.7,3.2-2.2,5.5-4.5l5-5.6l0.8,0.5v0.9l-0.4,0.5l0.4,0.7l-6.8,6.8c-4.4,4-8.5,6-12.3,6
		c-3.8,0-6.8-0.5-9.3-1.5c-2.9-1.4-4.3-4-4.3-7.7c0-3.7,1.5-10.8,4.6-21.4c3-10.6,5.9-18.9,8.7-24.7L94.2,74.2z M76,86.6
		c-0.9,3.2-1.7,6.2-2.4,9c-2.9,10.9-4.3,16.8-4.3,17.9l-0.5,0.9l-0.5,2.8l-0.4,3.3c0.2,1.2,1,2.4,2.5,3.8c1.5,1.3,3.2,2.1,5,2.5
		l0.9-0.2l0.7-0.8c-1.5-0.5-2.6-1.1-3.3-1.9c-0.7-0.8-1.1-3.1-1.1-6.9c0-3.8,2-11.8,6.1-24c2.4-7,4-12.5,4.8-16.4l-4.6-0.2
		C77.9,80,76.9,83.4,76,86.6z M82.3,39.8c1.8-2.2,4-3.3,6.6-3.3c2.7,0,5,0.5,7,1.5c2.5,1.3,3.8,4.1,3.8,8.3c0,2-1,4.2-2.9,6.4
		c-1.9,2.3-4.2,3.4-6.7,3.4s-4.9-0.7-6.9-2c-2.4-1.7-3.6-4-3.6-6.8C79.6,44.5,80.5,41.9,82.3,39.8z M82.8,41.7
		c-0.9,1.3-1.3,2.8-1.3,4.3c0.2,1,0.4,2,0.8,2.8c0.7,1,1.9,1.5,3.5,1.5c1.1-0.2,2.2-0.8,3.5-2.1c1.2-1.2,1.8-2.8,1.8-4.9
		c-0.9-1.6-1.6-2.6-2-2.9c-0.7-0.6-1.9-0.9-3.5-0.9C84.6,39.7,83.7,40.4,82.8,41.7z"/>
</g>
</svg>
