<svg id="图层_9" data-name="图层 9" xmlns="http://www.w3.org/2000/svg" viewBox="0 0 141.23 141.09"><defs><style>.cls-1{fill:#fff;}.cls-2{fill:#231815;}</style></defs><title>cat</title><path d="M126.17,130.72c4.2-2.15,6-5.42,7.22-9,3.34-9.58,2.57-19.29.77-29.05-1.16-6.25-2.65-12.49-1.57-18.94.62-3.73,2.24-6.84,5.93-8,5.18-1.57,10.24,4.57,9.08,11A29.42,29.42,0,0,1,144.74,85c-2.45,4.69-2.79,9.62-2.3,14.84.58,6.19,1.9,12.34.93,18.65-1.66,10.88-7.61,17.8-17.85,20a5.68,5.68,0,0,0-4.4,3.36c-4.88,10.06-13.07,14.35-23.48,14.36-11.28,0-22.58.51-33.85-.49a97,97,0,0,1-20-3.82c-8.44-2.59-13.27-8.79-16.15-17.23-4.13-12.07-4.52-24.54-3.46-37,1.43-16.85,6.58-32.49,16.76-45.76C45.8,45.49,50.38,39,55,32.38A44.87,44.87,0,0,1,58.49,28c5.26-5.81,8-5.42,11.21,1.77,1,2.18,2.29,3.05,4.5,3a33.1,33.1,0,0,1,17.09,4.6c1.87,1.07,3.36.66,5.1-.28,10-5.37,12.42-4.06,14.14,7.48a46.73,46.73,0,0,1,.16,14.5C109.06,68.84,111.77,77.16,117,85a59.27,59.27,0,0,1,10.35,28.63C127.78,119.12,127,124.53,126.17,130.72Z" transform="translate(-6.53 -15.23)"/><path class="cls-1" d="M47.5,136.64c-.5,3.69.76,6.47,1.27,9.34.84,4.73.91,4.54-3.51,3.5-8.39-2-13.76-7.08-15.9-15.88C22.3,104.54,25.65,77.25,43.05,53c9.35-13,22-20.32,38.1-16.61,13.35,3.07,22.66,11.77,25.23,26,2,11,6.28,20.37,11.7,29.71,10.25,17.65,8.9,37.33-2.64,53.8-3,4.28-7,6.19-11.68,6.94-3.45.56-7,.39-10.53.54-2,.09-2.39-.77-1.48-2.55a47,47,0,0,0,3.66-8.61l-.82-.58c-1.77,2.85-3.58,5.67-5.31,8.55s-8.19,4.56-11,2.83c-1.31-.81-1.15-2.16-1.16-3.39-.06-5,0-9.95,0-14.93a11.19,11.19,0,0,0-1.06-5.62c-1.49,4.79-1,9-1.47,13-.25,2.53-.11,5.1-.22,7.65-.07,1.55-.19,3.19-2.15,3.43s-2.81-1.08-3.11-2.92c-.64-3.9-1.42-7.78-1.89-11.69a19.65,19.65,0,0,0-2.13-7.18,128.91,128.91,0,0,0,1.36,17.91c.48,2.76-.24,3.55-2.93,3.46-10.58-.33-10.55-.26-13.75-10.86C49.29,140.31,49.26,138.42,47.5,136.64Z" transform="translate(-6.53 -15.23)"/><path class="cls-1" d="M145.2,75.89a11.92,11.92,0,0,1-1.45,5.68c-4.58,7.71-4.08,16-2.86,24.43,1,7,1.18,13.9-2.32,20.44-2.78,5.2-7.09,7.83-12.31,9.29-.57.16-1.28.46-1.67-.17a1.19,1.19,0,0,1,.54-1.63c14.87-8,13-22.18,12.12-35.94-.41-6.35-2.55-12.45-2.61-18.88,0-2.44-.13-4.92.71-7.17.92-2.47,2.55-4.46,5.46-4.1C143.45,68.17,145.2,71.28,145.2,75.89Z" transform="translate(-6.53 -15.23)"/><path class="cls-1" d="M108.44,57.31a17.36,17.36,0,0,1-3.28-11.05c0-3.22-1.21-4.93-4.48-3.82a3.33,3.33,0,0,1-3.63-1c-.89-.81-1.19-1.63.1-2.35,1-.53,1.93-1.08,2.91-1.56,5.09-2.48,6.86-1.37,7.82,4.54C108.67,47,108.53,51.85,108.44,57.31Z" transform="translate(-6.53 -15.23)"/><path class="cls-1" d="M52.52,39.45A63.56,63.56,0,0,1,61,28.37c1.12-1.12,2.39-2.54,4.11-1.79s2.16,2.63,2.71,4.31c.2.6.36,1.34-.21,1.76s-1.15,0-1.58-.48c-2.43-2.82-4.49-1.49-5.78,1C58.63,36.22,56.25,37.84,52.52,39.45Z" transform="translate(-6.53 -15.23)"/><path class="cls-1" d="M103,47.52c-1-1.07-2.1-1.63-1.6-3a1,1,0,0,1,.93-.25C103.61,44.88,103.51,46,103,47.52Z" transform="translate(-6.53 -15.23)"/><path class="cls-1" d="M62.39,34.59l-.66-.45a5.14,5.14,0,0,1,1.12-1.23.65.65,0,0,1,.95.67C63.78,34.38,63.07,34.39,62.39,34.59Z" transform="translate(-6.53 -15.23)"/><path d="M91.18,59.11c-.29,2.36-1.51,3.83-3.75,3.82-2.48,0-3.78-1.64-3.6-4.19a3.47,3.47,0,0,1,3.87-3.58C90,55.26,91.09,56.77,91.18,59.11Z" transform="translate(-6.53 -15.23)"/><path d="M59,55c-2.29-.33-3.65-1.63-3.51-4A3.38,3.38,0,0,1,59,47.43c2.27,0,3.62,1.49,3.63,3.81S61.18,54.82,59,55Z" transform="translate(-6.53 -15.23)"/><path d="M65.42,55.94c1.32,1.45,2.59,2.21,4.19.84.8-.69,1.68-.71,2.2.19,1.59,2.71,3.48,2.18,5.55.38-.13,3.29-2.12,4.63-4.65,3.2a6,6,0,0,0-4.37-.95C66.26,60,65,58.69,65.42,55.94Z" transform="translate(-6.53 -15.23)"/><path class="cls-2" d="M9.05,29.75,6.53,19l5.67-.54a2.81,2.81,0,0,1,1.32.27q.81.33.93,1.83l.81,6.63a2.52,2.52,0,0,1-.48,2,2.27,2.27,0,0,1-1.56.78h-.06Zm-.6-9.33,1.86,7.83,2.82.15a.68.68,0,0,0,.42-.18,1.05,1.05,0,0,0,.18-.81l-.84-6.78q.15-.72-.66-.6ZM25.1,16.76l3.15.09,0,1.56L25,18.35,25,20.18l-1.56,0,.06-1.83-4.74-.09.36,2-1.59.24-.33-2.28-3,0,0-1.56,2.73,0-.15-1.08,1.56-.21.21,1.32,5,.06.06-1.5,1.56,0ZM29.18,22a3.37,3.37,0,0,1,.75,2.55l-.15,9.78q-.06,3.12-3.57,3.24h0L18,37.16,15.8,21.68l11.43-.48A2.4,2.4,0,0,1,29.18,22ZM17.6,23.15l.18,1.41,2.43.09L20.12,23Zm1.77,12.48,1.53.09-.57-9.48L18,26.15Zm7.89-12.87L21.68,23l.12,1.71,6.51.24.06-.51a2.2,2.2,0,0,0-.3-1.44Q28,22.85,27.26,22.76Zm1,11.4.09-7.62-6.42-.27.57,9.51,3.72.15Q28.49,35.87,28.22,34.16Z" transform="translate(-6.53 -15.23)"/><path class="cls-2" d="M41.54,28.82l-3.12-2.1-2.67,1.74-.87-1.68,3.57-2.28,3.21,2.16,2.85-1.56.75,1.77Z" transform="translate(-6.53 -15.23)"/></svg>