<svg id="图层_5" data-name="图层 5" xmlns="http://www.w3.org/2000/svg" viewBox="0 0 147.62 148.14"><defs><style>.cls-1{fill:#231815;}.cls-2{fill:#fff;}</style></defs><title>cmtMyComments</title><path class="cls-1" d="M10.85,84.28V22.57c0-8.88,3-12,11.72-12,25.78,0,51.56,0,77.34,0,2.29,0,3.72,0,3.74,3.16s-1.64,3.07-3.81,3.06q-31.28,0-62.53,0c-5.21,0-10.42,0-15.63,0-3,0-4.46,1.06-4.45,4.35q.11,63.36,0,126.7c0,3.4,1.39,4.6,4.67,4.6q62.73-.08,125.47,0c4,0,4.81-1.94,4.8-5.38-.06-25.64,0-51.28-.07-76.92,0-2.34.09-3.66,3.16-3.69,3.22,0,3.08,1.55,3.07,3.76q-.06,35,0,69.94c0,2.88.07,5.76,0,8.63-.22,5.86-3.59,9.37-9.43,9.89-1.09.1-2.19,0-3.29,0H23.8c-9.88,0-12.95-3.1-12.95-13.09Z" transform="translate(-10.85 -10.53)"/><path class="cls-1" d="M139.9,10.61c7.95.12,13.62,4.05,16.73,11.13s2.36,14.25-3,19.93C132.72,64,111.52,86,90.44,108.15a9.45,9.45,0,0,1-3.79,2.34c-10.65,3.92-21.28,7.92-31.92,11.86-1.65.61-3.43,1.52-5-.07s-1-3.46-.32-5.35q5.66-15.6,11.19-31.25a12.1,12.1,0,0,1,2.82-4.45q30.8-32,61.53-64.11C129.1,12.79,133.89,10.44,139.9,10.61Z" transform="translate(-10.85 -10.53)"/><path class="cls-2" d="M87.89,102.14c-1.16-1-1.68-1.37-2.14-1.83-4.85-4.84-9.63-9.74-14.56-14.49-1.39-1.33-1-2.06.09-3.25Q95,57.75,118.51,32.8c1.39-1.47,2.17-1.45,3.55,0q7.05,7.18,14.34,14.13c1.5,1.42,1.23,2.26-.06,3.61Q112.73,75.13,89.26,99.85A13.57,13.57,0,0,0,87.89,102.14Z" transform="translate(-10.85 -10.53)"/><path class="cls-2" d="M151.72,30c.18,5.94-4.53,9.08-8.13,12.91-1.08,1.15-1.68.09-2.3-.51q-7.51-7.29-15-14.62c-.66-.65-1.63-1.28-.53-2.33,4-3.8,7.22-8.68,13.85-8.39C146.75,17.39,151.9,22.6,151.72,30Z" transform="translate(-10.85 -10.53)"/><path class="cls-2" d="M81.15,105.71l-25.94,9.84c3.78-9,7.26-17.28,10.58-25.16Z" transform="translate(-10.85 -10.53)"/></svg>