<svg id="图层_6" data-name="图层 6" xmlns="http://www.w3.org/2000/svg" viewBox="0 0 144.51 128.68"><defs><style>.cls-1{fill:#040000;}.cls-2{fill:#fff;}.cls-3{fill:#fefefe;}</style></defs><title>feedback</title><path class="cls-1" d="M83.3,18.19q30.23,0,60.47,0c7.38,0,11.6,3.89,11.62,11.28q.15,43.8,0,87.61c0,7.35-4.37,11.37-11.63,11.38-12.07,0-24.14.1-36.2-.07a7.27,7.27,0,0,0-6.28,2.89c-3.24,3.9-6.66,7.65-10,11.46-4.73,5.42-11.16,5.51-16,.17-2.76-3-5.76-5.93-8.11-9.28-2.89-4.1-6.35-5.48-11.38-5.29-11,.41-21.94.14-32.91.12-7.61,0-11.83-4.17-11.88-12-.08-13.85,0-27.7,0-41.55q0-22,0-44C11,22,14.76,18.19,23.65,18.19Q53.47,18.17,83.3,18.19Z" transform="translate(-10.95 -18.18)"/><path class="cls-2" d="M82.93,39c10.44,0,10.33,0,9.22,10.37-1.45,13.72-2.73,27.46-4,41.2-.55,5.83-1.21,6.64-5.38,6.64-2.94,0-4.2-1.41-4.45-4.17-1.39-15.79-2.88-31.57-4.2-47.37C73.54,39,73.68,39,80.46,39Z" transform="translate(-10.95 -18.18)"/><path class="cls-3" d="M79.1,106.76c-.37-3.19-.25-5.62,4.17-5.62s4.26,2.63,4.27,5.66,0,5.32-4.14,5.37S78.62,110,79.1,106.76Z" transform="translate(-10.95 -18.18)"/></svg>