<svg id="图层_7" data-name="图层 7" xmlns="http://www.w3.org/2000/svg" viewBox="0 0 165.26 162.48"><defs><style>.cls-1{fill:#231815;}</style></defs><title>myCoursePreferences</title><path class="cls-1" d="M.07,58.78V48.86A47.54,47.54,0,0,1,6.88,27.38,50.43,50.43,0,0,1,25.14,9.46c7.32-4.22,15-7.33,23.65-7.64C60.11,1.41,70,5.37,79.15,11.32c2.74,1.78,4.49,1.61,7.07-.12,11.89-8,25-11.83,39.05-8,10.35,2.82,19.67,7.92,26.94,16.36,6.22,7.22,10.66,15.29,12.11,24.6,2.81,18.14-.07,35.25-10,51.12s-22.09,29.35-35.74,41.85c-9.47,8.67-19.53,16.58-29.8,24.26-5,3.77-7.86,3.69-13-.08C68.57,156,61.4,150.53,54.6,144.61,36.92,129.23,20.17,113,8.79,92.09,4.15,83.56.5,74.74.07,64.87V63.35A5.93,5.93,0,0,0,.07,58.78Z" transform="translate(-0.07 -1.72)"/></svg>