<svg id="图层_8" data-name="图层 8" xmlns="http://www.w3.org/2000/svg" viewBox="0 0 131.72 165.07"><defs><style>.cls-1{fill:#231815;}.cls-2{fill:#fff;}</style></defs><title>myCourses</title><path class="cls-1" d="M28.86.05H137.54c7.54,1.83,10.09,4.67,11.23,12.53a45.09,45.09,0,0,1,.28,6.57q0,63.35,0,126.67a35.36,35.36,0,0,1-.91,9.39c-1.87,6.84-5.64,9.86-12.72,9.89-11.79.05-23.58,0-35.37,0H32.2c-8.72,0-12.78-3.37-14.41-11.91a34.25,34.25,0,0,1-.44-6.55q0-64.17,0-128.32a39.48,39.48,0,0,1,.28-5.75C18.78,4.72,21.32,1.88,28.86.05Z" transform="translate(-17.34 -0.05)"/><path class="cls-2" d="M127.45,74C122,69,117,64.76,112.39,60.11c-2.34-2.37-3.66-2-5.81.11C101.9,64.76,97,69,91.43,74v-7.6c0-17.41.1-34.82-.09-52.23,0-3.22.94-3.8,3.89-3.74,9.59.19,19.19.15,28.79,0,2.59,0,3.52.54,3.5,3.36C127.39,33.53,127.45,53.27,127.45,74Z" transform="translate(-17.34 -0.05)"/><path class="cls-2" d="M84.49,136.8H43.81a25.2,25.2,0,0,1-3.69-.12c-2.73-.41-3.93-2.21-4-4.86a4.42,4.42,0,0,1,3.93-4.92,19.72,19.72,0,0,1,3.69-.13h80.93c.68,0,1.37,0,2,0,3.4,0,5.71,1.49,5.72,5s-2.2,5.08-5.64,5.06c-5.61,0-11.23,0-16.84,0Z" transform="translate(-17.34 -0.05)"/><path class="cls-2" d="M66.34,109c-8.07,0-16.14,0-24.21,0-3.42,0-6-1-6-4.95-.06-3.33,1.91-5.15,6-5.17q24.21-.09,48.43,0c4,0,6.08,2,5.89,5.29-.22,3.63-2.56,4.82-5.86,4.82Q78.45,109,66.34,109Z" transform="translate(-17.34 -0.05)"/></svg>