<svg id="图层_9" data-name="图层 9" xmlns="http://www.w3.org/2000/svg" viewBox="0 0 137.67 137.09"><defs><style>.cls-1{fill:#231815;}.cls-2{fill:#fff;}</style></defs><title>myTags</title><path class="cls-1" d="M147.38,48.26c0,6.46-.1,12.92,0,19.37a18.22,18.22,0,0,1-5.93,13.93q-21.12,20.89-42.11,41.9c-8.6,8.65-17,17.53-25.52,26.22-5.75,5.85-11.07,6.09-16.75.17-14.52-15.16-29.46-29.91-44.28-44.78a10,10,0,0,1,0-14.43Q46.69,56.8,80.67,23.12c4.48-4.46,10.15-5.92,16.22-6q20-.14,40.06,0c7.65.05,10.2,2.52,10.38,10.09.15,7,0,14,0,21Z" transform="translate(-9.75 -17.09)"/><path class="cls-2" d="M106.35,49.49a9,9,0,0,1,8.56,8.4,8.71,8.71,0,0,1-8.29,8.6,8.85,8.85,0,0,1-8.77-8.57C97.89,53.67,102.07,49.52,106.35,49.49Z" transform="translate(-9.75 -17.09)"/></svg>