<svg id="图层_9" data-name="图层 9" xmlns="http://www.w3.org/2000/svg" viewBox="0 0 141.24 141.09"><defs><style>.cls-1{fill:#fff;}.cls-2{fill:#231815;}</style></defs><title>wink</title><path d="M119.64,115.49c4.2-2.15,6-5.42,7.22-9,3.34-9.58,2.57-19.29.77-29C126.47,71.19,125,65,126.06,58.5c.62-3.73,2.24-6.84,5.93-8,5.18-1.57,10.24,4.57,9.08,11a29.62,29.62,0,0,1-2.86,8.27c-2.45,4.69-2.79,9.62-2.3,14.84.58,6.19,1.9,12.34.93,18.65-1.66,10.88-7.61,17.8-17.85,20a5.67,5.67,0,0,0-4.4,3.36C109.71,136.68,101.52,141,91.11,141c-11.28,0-22.58.51-33.85-.49a97.19,97.19,0,0,1-20-3.82c-8.44-2.59-13.27-8.79-16.15-17.23-4.13-12.07-4.52-24.54-3.46-37C19.08,65.59,24.23,50,34.41,36.68c4.86-6.42,9.44-12.91,14.06-19.53A45.89,45.89,0,0,1,52,12.77C57.22,7,60,7.35,63.17,14.54c1,2.18,2.29,3.05,4.5,3a33,33,0,0,1,17.09,4.6c1.87,1.07,3.36.66,5.1-.28,10-5.37,12.42-4.06,14.14,7.48a46.7,46.7,0,0,1,.16,14.5c-1.63,9.77,1.08,18.09,6.31,25.93A59.33,59.33,0,0,1,120.82,98.4C121.25,103.89,120.47,109.3,119.64,115.49Z" transform="translate(0 -0.02)"/><path class="cls-1" d="M41,121.41c-.5,3.69.76,6.47,1.27,9.34.84,4.73.91,4.54-3.51,3.5-8.39-2-13.76-7.08-15.9-15.88C15.77,89.31,19.12,62,36.52,37.77c9.35-13,22-20.32,38.1-16.61,13.35,3.07,22.66,11.77,25.23,26,2,11,6.28,20.37,11.7,29.71,10.25,17.65,8.9,37.33-2.64,53.8-3,4.28-7,6.19-11.68,6.94-3.45.56-7,.39-10.53.54-2,.09-2.39-.77-1.48-2.55A47.29,47.29,0,0,0,88.88,127l-.82-.58c-1.77,2.85-3.58,5.67-5.31,8.55s-8.19,4.56-11,2.83c-1.31-.81-1.15-2.16-1.16-3.39-.06-5,0-10,0-14.93a11.24,11.24,0,0,0-1.06-5.62c-1.49,4.79-1,9-1.47,13-.25,2.53-.11,5.1-.22,7.65-.07,1.55-.19,3.19-2.15,3.43s-2.81-1.08-3.11-2.92c-.64-3.9-1.42-7.78-1.89-11.69a19.62,19.62,0,0,0-2.13-7.18,129.39,129.39,0,0,0,1.36,17.91c.48,2.76-.24,3.55-2.93,3.46-10.58-.33-10.55-.26-13.75-10.86C42.76,125.08,42.73,123.19,41,121.41Z" transform="translate(0 -0.02)"/><path class="cls-1" d="M138.67,60.66a11.87,11.87,0,0,1-1.45,5.68c-4.58,7.71-4.08,16-2.86,24.43,1,7,1.18,13.9-2.32,20.44-2.78,5.2-7.09,7.83-12.31,9.29-.57.16-1.28.46-1.67-.17a1.19,1.19,0,0,1,.5-1.61l0,0c14.87-8,13-22.18,12.12-35.94-.41-6.35-2.55-12.45-2.61-18.88,0-2.44-.13-4.92.71-7.17.92-2.47,2.55-4.46,5.46-4.1C136.92,52.94,138.67,56.05,138.67,60.66Z" transform="translate(0 -0.02)"/><path class="cls-1" d="M101.91,42.08a17.34,17.34,0,0,1-3.28-11c0-3.22-1.21-4.93-4.48-3.82a3.33,3.33,0,0,1-3.63-1c-.89-.81-1.19-1.63.1-2.35,1-.53,1.93-1.08,2.91-1.56,5.09-2.48,6.86-1.37,7.82,4.54C102.14,31.77,102,36.62,101.91,42.08Z" transform="translate(0 -0.02)"/><path class="cls-1" d="M46,24.22a63.81,63.81,0,0,1,8.48-11.08c1.12-1.12,2.39-2.54,4.11-1.79s2.16,2.63,2.71,4.31c.2.6.36,1.34-.21,1.76s-1.15,0-1.58-.48c-2.43-2.82-4.49-1.49-5.78,1C52.1,21,49.72,22.61,46,24.22Z" transform="translate(0 -0.02)"/><path class="cls-1" d="M96.47,32.29c-1-1.07-2.1-1.63-1.6-3A1,1,0,0,1,95.8,29C97.08,29.65,97,30.77,96.47,32.29Z" transform="translate(0 -0.02)"/><path class="cls-1" d="M55.86,19.36l-.66-.45a5,5,0,0,1,1.12-1.23.65.65,0,0,1,.88.27.61.61,0,0,1,.07.4C57.25,19.15,56.54,19.16,55.86,19.36Z" transform="translate(0 -0.02)"/><path d="M84.65,43.88c-.29,2.36-1.51,3.83-3.75,3.82-2.48,0-3.78-1.64-3.6-4.19a3.47,3.47,0,0,1,3.33-3.6,3.25,3.25,0,0,1,.54,0C83.47,40,84.56,41.54,84.65,43.88Z" transform="translate(0 -0.02)"/><path d="M58.89,40.71c1.32,1.45,2.59,2.21,4.19.84.8-.69,1.68-.71,2.2.19,1.59,2.71,3.48,2.18,5.55.38-.13,3.29-2.12,4.63-4.65,3.2a6,6,0,0,0-4.37-1C59.73,44.77,58.47,43.46,58.89,40.71Z" transform="translate(0 -0.02)"/><path class="cls-2" d="M2.52,14.52,0,3.77l5.67-.54A2.72,2.72,0,0,1,7,3.5q.81.33.93,1.83L8.73,12a2.52,2.52,0,0,1-.48,2,2.27,2.27,0,0,1-1.56.78H6.63Zm-.6-9.33L3.78,13l2.82.15A.67.67,0,0,0,7,13a1.06,1.06,0,0,0,.18-.81L6.36,5.4q.15-.72-.66-.6ZM18.57,1.53l3.15.09V3.18l-3.25-.06V5H16.91L17,3.12,12.23,3l.36,2L11,5.27,10.67,3h-3V1.43H10.4L10.25.35,11.81.14,12,1.46l5,.06L17.08,0h1.56Zm4.08,5.24a3.36,3.36,0,0,1,.75,2.55l-.15,9.78q-.06,3.12-3.57,3.24h0l-8.21-.41L9.27,6.45,20.7,6A2.4,2.4,0,0,1,22.65,6.77ZM11.07,7.92l.18,1.41,2.43.09-.09-1.65ZM12.84,20.4l1.53.09L13.8,11l-2.33-.09ZM20.73,7.53l-5.58.24.12,1.71,6.51.24.06-.51a2.2,2.2,0,0,0-.3-1.44Q21.46,7.62,20.73,7.53Zm1,11.4.09-7.62L15.4,11,16,20.55l3.72.15c1.51,0,2.18-.63,2-1.77Z" transform="translate(0 -0.02)"/><path class="cls-2" d="M35,13.59l-3.12-2.1-2.67,1.74-.87-1.68,3.57-2.28,3.21,2.16L38,9.87l.75,1.77Z" transform="translate(0 -0.02)"/><path d="M46.92,32.86l5.62,4.78-3.77-.53-2.24-1.44Zm1.85,4.25,3.77.53-6.72,3,.39-2.75Z" transform="translate(0 -0.02)"/></svg>